<svg id="Layer_1" enable-background="new 0 0 497 497" height="30" viewBox="0 0 497 497" width="30" xmlns="http://www.w3.org/2000/svg"><g><path d="m453.447 105.852h-59.346v-57.377h59.346l20 28.689z" fill="#ff8ae0"/><path d="m453.447 192.18h-59.346v-57.377h59.346l20 28.688z" fill="#74d84b"/><path d="m453.447 278.508h-59.346v-57.378h59.346l20 28.689z" fill="#b23eff"/><path d="m453.447 364.835h-59.346v-57.377h59.346l20 28.688z" fill="#87ddf5"/><g><g><g><path d="m398.359 497h-307.749c-37.034 0-67.057-30.022-67.057-67.057v-362.943c0-37.003 29.997-67 67-67h300.278c12.852 0 23.27 10.418 23.27 23.27v343.713c0 12.852-10.418 23.27-23.27 23.27h-.004v75.264h7.532c8.694 0 15.742 7.048 15.742 15.742 0 8.693-7.048 15.741-15.742 15.741z" fill="#677a8f"/><path d="m390.831 390.253c12.852 0 23.27-10.418 23.27-23.27v-343.713c0-12.852-10.418-23.27-23.27-23.27h-40c12.852 0 23.27 10.418 23.27 23.27v343.713c0 12.852-10.418 23.27-23.27 23.27h-.004v75.264h7.532c8.694 0 15.742 7.048 15.742 15.742 0 8.694-7.048 15.742-15.742 15.742h40c8.694 0 15.742-7.048 15.742-15.742 0-8.694-7.048-15.742-15.742-15.742h-7.532v-75.264z" fill="#5c6d80"/><g><path d="m23.553 67v362.943c0 35.199 27.126 64.044 61.612 66.818v-496.526c-34.481 2.747-61.612 31.578-61.612 66.765z" fill="#ff8ae0"/></g><path d="m390.827 465.517h-297.078c-21.116 0-38.234-16.848-38.234-37.632 0-20.784 17.118-37.632 38.234-37.632h297.078z" fill="#f0f5fa"/><path d="m349.827 390.253h41v75.264h-41z" fill="#e4ecf2"/></g><path d="m390.827 420.385h-181.333c-4.142 0-7.5 3.358-7.5 7.5s3.358 7.5 7.5 7.5h181.333" fill="#c5d7e6"/></g><path d="m247.281 99.412 30.98 62.772 69.272 10.065-50.126 48.861 11.833 68.992-61.959-32.573-61.959 32.573 11.833-68.992-50.126-48.861 69.273-10.065z" fill="#ffda45"/></g></g></svg>