<svg xmlns="http://www.w3.org/2000/svg" version="1.1" xmlns:xlink="http://www.w3.org/1999/xlink" width="30" height="30" x="0" y="0" viewBox="0 0 511.998 511.998" style="enable-background:new 0 0 512 512" xml:space="preserve" class=""><g><g fill="#ff5f7a"><path d="M393.902 48.755c-38.043-2.698-72.406 11.628-97.283 35.768-4.89 4.745-8.715 10.477-11.347 16.763-6.842 16.34-20.913 50.796-26.666 64.905a8.224 8.224 0 0 0 3.058 9.953l64.164 42.776c1.309.873 2.236 6.281-.611 10.078l-35.672 47.562 33.322 35.283-8.471 107.511 17.508 1.252c60.525-38.202 165.354-118.381 178.933-222.269 9.693-74.166-42.326-144.29-116.935-149.582zM257.065 233.692l-62.514-41.676a8.265 8.265 0 0 1-3.52-8.498l15.667-78.335c1.281-6.403-1.307-12.988-6.625-16.776-24.464-17.423-55.105-26.568-88.41-22.476-11.616 1.427-22.617 4.381-32.857 8.635-51.621 21.448-72.174 98.924-67.83 134.682C26.463 336.735 168.867 416.335 214.053 441.29l11.028-10.63 13.288-93.019a16.528 16.528 0 0 0-4.676-14.027l-13.883-13.883a8.265 8.265 0 0 1-.768-10.804l40.05-53.399c2.847-3.796 1.921-9.204-2.027-11.836zM239.538 73.934V24.899c0-5.03 4.455-8.894 9.434-8.182l34.324 4.903c6.283.898 9.252 8.247 5.355 13.257l-34.324 44.131c-4.831 6.213-14.789 2.796-14.789-5.074z" fill="#ff5f7a" opacity="1" data-original="#ff5f7a" class=""></path></g><path fill="#ff7e92" d="m189.608 34.937-14.372-11.498c-4.71-3.768-3.928-11.15 1.467-13.847l11.497-5.75c4.974-2.487 10.935.549 11.85 6.034l2.874 17.247c1.247 7.48-7.395 12.551-13.316 7.814z" opacity="1" data-original="#ff7e92" class=""></path><path fill="#ff5f7a" d="m258.231 459.166-7.996 39.978c-1.157 5.784 3.942 10.883 9.726 9.726l19.989-3.998c4.875-.975 7.793-6.002 6.22-10.719l-11.993-35.98c-2.68-8.041-14.284-7.319-15.946.993z" opacity="1" data-original="#ff5f7a" class=""></path><path fill="#ff7e92" d="m332.328 484.693 17.151 13.721a8.266 8.266 0 0 0 11.008-.61l13.721-13.721c5.207-5.207 1.519-14.11-5.845-14.11h-30.872c-7.813.001-11.264 9.84-5.163 14.72z" opacity="1" data-original="#ff7e92" class=""></path><path fill="#fb4455" d="M29.044 192.716c-4.599-46.981 15.247-91.335 49.762-118.151C27.239 96.041-5.086 150.564.658 209.248 13.17 337.061 165.15 430.036 210.335 454.992c5.067 2.798 11.322-.362 12.14-6.092l2.605-18.239C168.804 397.51 40.499 309.734 29.044 192.716zM325.37 297.032l-35.826-20.472-3.72 4.96a8.264 8.264 0 0 0 1.653 11.571l22.594 16.946a8.265 8.265 0 0 1 3.238 7.672l-13.817 106.928c-.876 6.78 6.402 11.582 12.316 8.153a632.904 632.904 0 0 0 20.095-12.184l5.917-100.589a24.793 24.793 0 0 0-12.45-22.985z" opacity="1" data-original="#fb4455"></path></g></svg>