<svg xmlns="http://www.w3.org/2000/svg" version="1.1" xmlns:xlink="http://www.w3.org/1999/xlink" width="30" height="30" x="0" y="0" viewBox="0 0 100 100" style="enable-background:new 0 0 512 512" xml:space="preserve"><g><path d="M50 98C23.533 98 2 76.467 2 50S23.533 2 50 2s48 21.533 48 48-21.533 48-48 48zm0-90C26.841 8 8 26.841 8 50s18.841 42 42 42 42-18.841 42-42S73.159 8 50 8zm15 36c-3.309 0-6-2.691-6-6s2.691-6 6-6 6 2.691 6 6-2.691 6-6 6zm-30 0c-3.309 0-6-2.691-6-6s2.691-6 6-6 6 2.691 6 6-2.691 6-6 6zm36 21a3 3 0 0 0-3-3H32a3 3 0 1 0 0 6h36a3 3 0 0 0 3-3z" fill="#000000" opacity="1" data-original="#000000"></path></g></svg>